<svg width="194" height="121" viewBox="0 0 194 121" fill="none" xmlns="http://www.w3.org/2000/svg">
<path d="M189.352 93.512V108.872C170.024 110.92 159.784 99.272 159.784 81.224V26.312H176.68V43.08H188.584V58.056H176.68V81.352C176.68 90.568 180.904 94.024 189.352 93.512Z" fill="#00D4D4"/>
<path d="M47.656 81.352V13.768H64.68V81.352C64.68 90.696 68.904 94.024 77.224 93.512V108.872C57.896 110.92 47.656 99.4 47.656 81.352Z" fill="#00ED99"/>
<path d="M86.168 70.856C86.168 54.088 97.944 41.416 115.864 41.416C134.296 41.416 145.176 53.576 145.176 70.856V109H128.28V70.472C128.28 66.76 127 57.928 115.864 57.928C108.44 57.928 103.064 63.048 103.064 70.472V109H86.168V70.856Z" fill="#F6F090"/>
<path d="M36.352 93.512V108.872C17.024 110.92 6.784 99.272 6.784 81.224V26.312H23.68V43.08H35.584V58.056H23.68V81.352C23.68 90.568 27.904 94.024 36.352 93.512Z" fill="#FF9397"/>
</svg>
